# xmcd
#
# Track frame offsets: 
#        182
#        14627
#        31857
#        47902
#        67472
#        80027
#        93995
#        111340
#        131795
#        146805
#        161740
#        182927
#        198952
#
# Disc length: 2825 seconds
#
# Revision: 8
# Processed by: cddbd v1.5.2PL0 Copyright (c) Steve Scherf et al.
# Submitted via: ExactAudioCopy v0.99pb3
#
DISCID=c90b070d
DTITLE=Alan Jackson - Who I Am
DYEAR=1994
DGENRE=Country
TTITLE0=Summertime Blues
TTITLE1=Livin' On Love
TTITLE2=Hole In The Wall
TTITLE3=Gone Country
TTITLE4=Who I Am
TTITLE5=You Can't Give Up On Love
TTITLE6=I Don't Even Know Your Name
TTITLE7=Song For The Life
TTITLE8=Thank God For The Radio
TTITLE9=All American Country Boy
TTITLE10=Job Description
TTITLE11=If I Had You
TTITLE12=Let's Get Back To Me And You
EXTD=more info\nMillenniumMusicProjectFormat, syntax as follows:\nTitl
EXTD=e{Subtitle}[info](Lyricist;Composer;Date,Artist,Location)[info]\n
EXTD=corrections to: windking3@yahoo.com YEAR: 1994
EXTT0=
EXTT1=
EXTT2=
EXTT3=
EXTT4=
EXTT5=
EXTT6=
EXTT7=
EXTT8=
EXTT9=
EXTT10=
EXTT11=
EXTT12=
PLAYORDER=
